<svg width="186" height="48" viewBox="0 0 310 80" fill="none" xmlns="http://www.w3.org/2000/svg">
    <path d="M0 13.929C0 12.0967 1.45205 10.5939 3.28333 10.531L306.483 0.120744C308.406 0.0547397 310 1.59524 310 3.51874V65.7312C310 67.5621 308.55 69.0643 306.72 69.1291L3.52043 79.8752C1.59666 79.9434 0 78.4023 0 76.4774V13.929Z" fill="#E7000B"/>
    <path fill-rule="evenodd" clip-rule="evenodd" d="M19.0803 32.503C20.2064 29.7503 21.7495 27.3418 23.7097 25.2773C25.6908 23.192 27.9847 21.5654 30.5913 20.3976C33.198 19.209 35.9819 18.6146 38.9431 18.6146C42.4881 18.6146 45.7517 19.4384 48.7337 21.0858C51.7157 22.7123 54.1869 24.8915 56.1471 27.6233L47.764 32.1276C46.6797 30.8764 45.3763 29.8755 43.854 29.1247C42.3317 28.374 40.6948 27.9986 38.9431 27.9986C37.2748 27.9986 35.7004 28.3427 34.2198 29.0309C32.7601 29.719 31.4672 30.6783 30.3411 31.9086C29.2359 33.1181 28.3704 34.5257 27.7448 36.1314C27.1808 37.5792 26.871 39.1287 26.8155 40.7799H17.428C17.4882 37.8358 18.0389 35.0768 19.0803 32.503ZM30.5913 62.2815C33.198 63.4493 35.9819 64.0332 38.9431 64.0332C42.4881 64.0332 45.7517 63.2095 48.7337 61.5621C51.7157 59.9147 54.1869 57.7355 56.1471 55.0246L49.9709 51.6599H46.5915C45.7751 52.3909 44.8626 53.0119 43.854 53.5231C42.3317 54.2739 40.6948 54.6492 38.9431 54.6492C37.2748 54.6492 35.7004 54.3051 34.2198 53.617C33.1523 53.0985 32.174 52.4461 31.2849 51.6599H19.7638C20.8049 53.776 22.1202 55.6796 23.7097 57.3706C25.6908 59.4559 27.9847 61.0929 30.5913 62.2815Z" fill="white"/>
    <path d="M38.9431 64.0332C35.9819 64.0332 33.198 63.4493 30.5913 62.2815C27.9847 61.0929 25.6908 59.4559 23.7097 57.3706C22.1202 55.6796 20.8049 53.776 19.7638 51.6599H31.2849C32.174 52.4461 33.1523 53.0985 34.2198 53.617C35.7004 54.3051 37.2748 54.6492 38.9431 54.6492C40.6948 54.6492 42.3317 54.2739 43.854 53.5231C44.8626 53.0119 45.7751 52.3909 46.5915 51.6599H49.9709L56.1471 55.0246C54.1869 57.7355 51.7157 59.9147 48.7337 61.5621C45.7517 63.2095 42.4881 64.0332 38.9431 64.0332Z" fill="white"/>
    <path d="M19.0803 32.503C20.2064 29.7503 21.7495 27.3418 23.7097 25.2773C25.6908 23.192 27.9847 21.5654 30.5913 20.3976C33.198 19.209 35.9819 18.6146 38.9431 18.6146C42.4881 18.6146 45.7517 19.4384 48.7337 21.0858C51.7157 22.7123 54.1869 24.8915 56.1471 27.6233L47.764 32.1276C46.6797 30.8764 45.3763 29.8755 43.854 29.1247C42.3317 28.374 40.6948 27.9986 38.9431 27.9986C37.2748 27.9986 35.7004 28.3427 34.2198 29.0309C32.7601 29.719 31.4672 30.6783 30.3411 31.9086C29.2359 33.1181 28.3704 34.5257 27.7448 36.1314C27.1808 37.5792 26.871 39.1287 26.8155 40.7799H17.428C17.4882 37.8358 18.0389 35.0768 19.0803 32.503Z" fill="white"/>
    <path d="M82.0508 31.9399H91.4348V40.7799H77.1855C76.2955 40.3499 75.3313 40.1353 74.2934 40.1353C73.2555 40.1353 72.2913 40.3499 71.4012 40.7799H58.9798C59.7898 38.8846 60.9114 37.2204 62.3444 35.7874C63.825 34.3068 65.5246 33.1494 67.4431 32.3153C69.3824 31.4812 71.4573 31.0641 73.6678 31.0641C75.4612 31.0641 77.0877 31.4395 78.5475 32.1902C80.0281 32.92 81.3418 33.8376 82.4887 34.9428L82.0508 31.9399Z" fill="white"/>
    <path d="M91.4348 63.2199H82.0195L81.5816 60.4047C80.8101 61.4891 79.8299 62.3649 78.6413 63.0323C77.4735 63.6996 76.1076 64.0332 74.5436 64.0332C72.2081 64.0332 70.0185 63.5953 67.9748 62.7195C65.9521 61.8436 64.1691 60.6341 62.6259 59.091C61.0828 57.527 59.8733 55.7336 58.9975 53.7108C58.718 53.0428 58.4842 52.3592 58.2961 51.6599H68.4788C69.0798 52.6342 69.8502 53.4221 70.79 54.0236C71.8535 54.6909 73.0213 55.0246 74.2934 55.0246C75.5863 55.0246 76.7645 54.6909 77.828 54.0236C78.7867 53.4221 79.5674 52.6342 80.1702 51.6599H91.4348V63.2199Z" fill="white"/>
    <path d="M97.0887 31.9399H106.473L106.504 33.9106C107.547 33.0139 108.735 32.3153 110.07 31.8148C111.404 31.3143 112.812 31.0641 114.293 31.0641C116.545 31.0641 118.588 31.6167 120.424 32.7219C122.259 33.8063 123.718 35.266 124.803 37.1011C125.492 38.2462 125.967 39.4725 126.226 40.7799H113.286C112.814 40.6421 112.316 40.5732 111.79 40.5732C111.265 40.5732 110.764 40.6421 110.286 40.7799H97.0975L97.0887 31.9399Z" fill="white"/>
    <path d="M106.504 63.2199H97.12L97.1084 51.6599H106.504V63.2199Z" fill="white"/>
    <path d="M126.461 63.2199H117.077V51.6599H126.461V63.2199Z" fill="white"/>
    <path d="M134.16 35.9125C135.599 34.3902 137.267 33.2016 139.165 32.3466C141.062 31.4916 143.085 31.0641 145.233 31.0641C147.798 31.0641 150.165 31.6584 152.334 32.847C154.502 34.0357 156.306 35.631 157.745 37.6329L151.925 40.7799H130.976C131.773 38.9387 132.834 37.3162 134.16 35.9125Z" fill="white"/>
    <path d="M149.299 52.9601L157.745 57.527C156.306 59.4872 154.502 61.0616 152.334 62.2503C150.165 63.4389 147.798 64.0332 145.233 64.0332C142.355 64.0332 139.728 63.2929 137.35 61.8123C134.994 60.3317 133.107 58.3507 131.689 55.8691C130.946 54.5396 130.401 53.1366 130.053 51.6599H140.146C140.658 52.4502 141.29 53.113 142.042 53.6482C142.981 54.3156 144.044 54.6492 145.233 54.6492C145.984 54.6492 146.703 54.5032 147.391 54.2113C148.1 53.8985 148.736 53.4814 149.299 52.9601Z" fill="white"/>
    <path d="M175.215 64.0332C172.338 64.0332 169.71 63.2929 167.333 61.8123C164.976 60.3317 163.089 58.3403 161.671 55.8379C160.934 54.5178 160.391 53.1251 160.043 51.6599H170.181C170.384 52.0172 170.612 52.3567 170.867 52.6786C171.368 53.2625 171.973 53.7317 172.682 54.0862C173.412 54.4407 174.256 54.6284 175.215 54.6492C176.133 54.6701 176.977 54.472 177.749 54.0549C178.541 53.6378 179.23 53.0748 179.814 52.3658L189.385 54.5866C188.113 57.3601 186.216 59.6332 183.692 61.4057C181.169 63.1574 178.343 64.0332 175.215 64.0332Z" fill="white"/>
    <path d="M164.142 35.9125C165.581 34.3902 167.249 33.2016 169.147 32.3466C171.045 31.4916 173.067 31.0641 175.215 31.0641C177.718 31.0641 180.001 31.6167 182.066 32.7219C184.151 33.8063 185.903 35.2869 187.321 37.1637C188.188 38.282 188.903 39.4874 189.468 40.7799H179.165C178.729 40.3853 178.247 40.0557 177.718 39.7912C176.946 39.395 176.112 39.1969 175.215 39.1969C174.34 39.1969 173.505 39.395 172.713 39.7912C172.198 40.0557 171.725 40.3853 171.293 40.7799H160.958C161.755 38.9387 162.816 37.3162 164.142 35.9125Z" fill="white"/>
    <path d="M194.245 16.2999H203.629V40.7799H194.245V16.2999Z" fill="white"/>
    <path d="M203.629 63.2199H194.245V51.6599H203.629V63.2199Z" fill="white"/>
    <path d="M219.865 63.2199H210.481V51.6599H219.865V63.2199Z" fill="white"/>
    <path d="M210.481 16.2999H219.865V40.7799H210.481V16.2999Z" fill="white"/>
    <path d="M228.735 35.9125C230.174 34.3902 231.843 33.2016 233.74 32.3466C235.638 31.4916 237.661 31.0641 239.809 31.0641C242.311 31.0641 244.594 31.6167 246.659 32.7219C248.744 33.8063 250.496 35.2869 251.914 37.1637C252.781 38.282 253.497 39.4874 254.061 40.7799H243.759C243.323 40.3853 242.84 40.0557 242.311 39.7912C241.539 39.395 240.705 39.1969 239.809 39.1969C238.933 39.1969 238.099 39.395 237.306 39.7912C236.791 40.0557 236.318 40.3853 235.886 40.7799H225.551C226.348 38.9387 227.41 37.3162 228.735 35.9125Z" fill="white"/>
    <path d="M239.809 64.0332C236.931 64.0332 234.303 63.2929 231.926 61.8123C229.57 60.3317 227.682 58.3403 226.264 55.8379C225.527 54.5178 224.985 53.1251 224.636 51.6599H234.775C234.977 52.0172 235.205 52.3567 235.461 52.6786C235.961 53.2625 236.566 53.7317 237.275 54.0862C238.005 54.4407 238.849 54.6284 239.809 54.6492C240.726 54.6701 241.571 54.472 242.342 54.0549C243.135 53.6378 243.823 53.0748 244.407 52.3658L253.978 54.5866C252.706 57.3601 250.809 59.6332 248.285 61.4057C245.762 63.1574 242.937 64.0332 239.809 64.0332Z" fill="white"/>
    <path d="M282.337 16.2999H291.721V40.7799H277.409C276.519 40.3499 275.555 40.1353 274.517 40.1353C273.479 40.1353 272.515 40.3499 271.625 40.7799H259.408C260.245 38.9714 261.361 37.3697 262.756 35.975C264.278 34.4528 266.03 33.2641 268.011 32.4091C269.992 31.5541 272.119 31.1267 274.392 31.1267C276.081 31.1267 277.583 31.4707 278.896 32.1589C280.231 32.8262 281.378 33.7125 282.337 34.8177V16.2999Z" fill="white"/>
    <path d="M291.721 63.2199H282.337V60.3422C281.378 61.4265 280.231 62.3128 278.896 63.001C277.583 63.6891 276.081 64.0332 274.392 64.0332C272.119 64.0332 269.992 63.6057 268.011 62.7507C266.03 61.8957 264.278 60.7175 262.756 59.2161C261.254 57.6938 260.076 55.9421 259.221 53.961C258.899 53.2147 258.638 52.4477 258.437 51.6599H268.703C269.304 52.6342 270.074 53.4221 271.014 54.0236C272.077 54.6909 273.245 55.0246 274.517 55.0246C275.81 55.0246 276.988 54.6909 278.052 54.0236C279.01 53.4221 279.791 52.6342 280.394 51.6599H291.721V63.2199Z" fill="white"/>
</svg>
