<svg width="296" height="38.48" viewBox="0 0 200 26" fill="#fff" xmlns="http://www.w3.org/2000/svg">
    <path d="M0 25.5344L4.99449 0.465565H9.69519L15.4609 15.2562L21.2266 0.465565H25.9273L30.9218 25.5344H25.303L22.6221 11.9972L17.3705 25.5344H13.5512L8.29967 11.9972L5.6188 25.5344H0Z" />
    <path d="M73.4771 26C71.7388 26 70.1046 25.6658 68.5744 24.9972C67.0442 24.3168 65.6977 23.3797 64.5347 22.186C63.3718 20.9922 62.4598 19.6134 61.7988 18.0496C61.1378 16.4738 60.8072 14.7906 60.8072 13C60.8072 11.2094 61.1378 9.53214 61.7988 7.96832C62.4598 6.39256 63.3718 5.00781 64.5347 3.81405C65.6977 2.62029 67.0442 1.68916 68.5744 1.02066C70.1046 0.34022 71.7388 0 73.4771 0C75.2276 0 76.868 0.34022 78.3981 1.02066C79.9283 1.68916 81.2749 2.62029 82.4378 3.81405C83.6007 5.00781 84.5066 6.39256 85.1554 7.96832C85.8164 9.53214 86.1469 11.2094 86.1469 13C86.1469 14.7906 85.8164 16.4738 85.1554 18.0496C84.5066 19.6134 83.6007 20.9922 82.4378 22.186C81.2749 23.3797 79.9283 24.3168 78.3981 24.9972C76.868 25.6658 75.2276 26 73.4771 26ZM73.4771 20.6281C74.4564 20.6281 75.3745 20.4311 76.2314 20.0372C77.1005 19.6313 77.8656 19.0822 78.5267 18.3898C79.1877 17.6855 79.7018 16.8737 80.0691 15.9545C80.4486 15.0354 80.6383 14.0505 80.6383 13C80.6383 11.9495 80.4486 10.9646 80.0691 10.0455C79.7018 9.12626 79.1877 8.32048 78.5267 7.6281C77.8656 6.92379 77.1005 6.37466 76.2314 5.98072C75.3745 5.57484 74.4564 5.3719 73.4771 5.3719C72.4978 5.3719 71.5736 5.57484 70.7044 5.98072C69.8475 6.37466 69.0885 6.92379 68.4275 7.6281C67.7665 8.32048 67.2462 9.12626 66.8667 10.0455C66.4995 10.9646 66.3159 11.9495 66.3159 13C66.3159 14.0505 66.4995 15.0354 66.8667 15.9545C67.2462 16.8737 67.7665 17.6855 68.4275 18.3898C69.0885 19.0822 69.8475 19.6313 70.7044 20.0372C71.5736 20.4311 72.4978 20.6281 73.4771 20.6281Z" />
    <path d="M89.2642 25.5344V0.465565H95.2135L104.615 15.8292V0.465565H110.124V25.5344H104.174L94.7728 10.1708V25.5344H89.2642Z" />
    <path d="M114.548 25.5344V0.465565H124.28C125.688 0.465565 126.961 0.752067 128.099 1.32507C129.238 1.88614 130.137 2.68595 130.798 3.72452C131.472 4.76309 131.808 5.98072 131.808 7.37741C131.808 7.90266 131.741 8.45776 131.606 9.0427C131.472 9.6157 131.233 10.1529 130.89 10.6543C130.547 11.1556 130.058 11.5496 129.421 11.8361C130.241 12.0271 130.89 12.3852 131.368 12.9105C131.845 13.4357 132.2 14.0445 132.433 14.7369C132.677 15.4174 132.837 16.1097 132.91 16.8141C132.983 17.5064 133.02 18.1332 133.02 18.6942C133.02 19.9596 132.671 21.1116 131.974 22.1501C131.276 23.1768 130.339 24.0005 129.164 24.6212C127.989 25.23 126.691 25.5344 125.271 25.5344H114.548ZM120.057 20.9862H124.684C125.32 20.9862 125.896 20.843 126.41 20.5565C126.936 20.258 127.352 19.8522 127.658 19.3388C127.977 18.8255 128.136 18.2406 128.136 17.584C128.136 17.0349 127.977 16.5156 127.658 16.0262C127.352 15.5248 126.936 15.1189 126.41 14.8085C125.896 14.4982 125.32 14.343 124.684 14.343H120.057V20.9862ZM120.057 9.86639H123.619C124.353 9.86639 124.984 9.62764 125.51 9.15014C126.036 8.67264 126.3 8.06979 126.3 7.3416C126.3 6.60147 126.036 6.03444 125.51 5.6405C124.984 5.24656 124.353 5.04959 123.619 5.04959H120.057V9.86639Z" />
    <path d="M143.44 0.465565H149.647L158.974 25.5344H153.135L151.666 21.595H141.42L139.951 25.5344H134.112L143.44 0.465565ZM143.44 16.2231H149.647L146.525 7.9146L143.44 16.2231Z" />
    <path d="M169.819 26C168.374 26 166.991 25.7792 165.669 25.3375C164.347 24.8838 163.19 24.2392 162.198 23.4036C161.207 22.556 160.491 21.5473 160.05 20.3774L165.228 18.5152C165.351 18.8613 165.62 19.1956 166.036 19.5179C166.465 19.8402 167.003 20.1088 167.652 20.3237C168.301 20.5266 169.023 20.6281 169.819 20.6281C170.553 20.6281 171.245 20.5266 171.894 20.3237C172.542 20.1088 173.069 19.8163 173.473 19.4463C173.877 19.0762 174.079 18.6465 174.079 18.157C174.079 17.6556 173.864 17.2438 173.436 16.9215C173.02 16.5872 172.481 16.3246 171.82 16.1336C171.171 15.9307 170.504 15.7815 169.819 15.686C167.958 15.4233 166.287 14.9936 164.806 14.3967C163.337 13.7879 162.174 12.9523 161.317 11.8898C160.472 10.8274 160.05 9.47842 160.05 7.84298C160.05 6.27916 160.503 4.91231 161.409 3.74243C162.315 2.56061 163.508 1.64142 164.989 0.98485C166.483 0.328284 168.093 0 169.819 0C171.263 0 172.646 0.226814 173.969 0.680443C175.303 1.12213 176.466 1.76676 177.457 2.61433C178.449 3.46189 179.159 4.47659 179.587 5.6584L174.409 7.48485C174.287 7.13866 174.011 6.81038 173.583 6.5C173.167 6.17769 172.634 5.91506 171.985 5.71212C171.337 5.50918 170.614 5.40771 169.819 5.40771C169.109 5.39578 168.429 5.49725 167.781 5.71212C167.132 5.927 166.599 6.21947 166.183 6.58953C165.767 6.9596 165.559 7.37741 165.559 7.84298C165.559 8.4876 165.755 8.97107 166.146 9.29339C166.538 9.60376 167.052 9.82461 167.689 9.95592C168.338 10.0872 169.048 10.2066 169.819 10.314C171.581 10.5647 173.203 11.0124 174.685 11.657C176.166 12.3017 177.353 13.1612 178.247 14.2355C179.141 15.3099 179.587 16.6171 179.587 18.157C179.587 19.7208 179.134 21.0937 178.229 22.2755C177.335 23.4454 176.148 24.3586 174.666 25.0152C173.185 25.6717 171.569 26 169.819 26Z" />
    <path d="M183.621 25.5344V0.465565H200V5.83747H189.13V9.41873H197.503V14.7906H189.13V20.1625H200V25.5344H183.621Z" />
    <path d="M45.6112 26C43.8729 26 42.2387 25.6658 40.7085 24.9972C39.1783 24.3168 37.8318 23.3797 36.6688 22.186C35.5059 20.9922 34.5939 19.6134 33.9329 18.0496C33.2718 16.4738 32.9413 14.7906 32.9413 13C32.9413 11.2094 33.2718 9.53214 33.9329 7.96832C34.0018 7.80395 34.0735 7.64166 34.1479 7.48145C34.3124 8.38471 34.5712 9.2573 34.9244 10.0992C35.5855 11.663 36.4974 13.0418 37.6604 14.2356C38.8233 15.4293 40.1699 16.3664 41.7 17.0469C43.2302 17.7154 44.8644 18.0496 46.6027 18.0496C48.3532 18.0496 49.9936 17.7154 51.5238 17.0469C53.0539 16.3664 54.4005 15.4293 55.5634 14.2356C56.6044 13.167 57.4394 11.9503 58.0684 10.5852C58.2101 11.3658 58.281 12.1708 58.281 13C58.281 14.7906 57.9505 16.4738 57.2895 18.0496C56.6407 19.6134 55.7348 20.9922 54.5719 22.186C53.4089 23.3797 52.0624 24.3168 50.5322 24.9972C49.002 25.6658 47.3617 26 45.6112 26Z" />
</svg>
